<?xml version="1.0" encoding="utf-8"?>
<svg xmlns="http://www.w3.org/2000/svg" version="1.1" width="1565" height="882">
<path style="fill:#E6F3E9;fill-opacity:1;stroke:none" d="M 778.963,552.097 C 777.928 551.195,776.697 549.89,776.267 549.972 C 775.162 550.182,771.885 553.272,771.285 553.558 C 769.102 554.598,766.36 554.921,765.178 555.254 C 762.738 555.941,760.2 556.674,758.981 557.021 C 756.515 557.723,754.034 558.615,752.816 558.773 C 750.351 559.092,747.438 558.492,746.534 558.633 C 744.688 558.922,742.473 559.871,742.119 560.443 C 741.26 561.825,741.852 565.102,741.935 566.04 C 742.13 568.257,742.96 571.08,743.154 572.182 C 743.567 574.526,743.991 576.914,744.055 578.066 C 744.184 580.382,743.754 582.73,743.804 583.886 C 743.906 586.206,744.655 590.134,744.586 590.23 C 744.008 591.032,741.798 588.095,741.238 587.451 C 740.107 586.15,738.386 583.102,737.825 582.452 C 736.383 580.777,734.617 579.307,733.71 578.708 C 731.874 577.497,729.579 576.726,728.545 576.327 C 726.427 575.508,724.012 574.924,722.987 574.565 C 720.937 573.849,718.736 573.216,717.918 572.613 C 716.226 571.364,714.803 568.9,714.144 568.038 C 712.705 566.155,711.443 564.109,710.711 563.18 C 709.242 561.312,707.401 559.629,706.774 558.669 C 705.509 556.731,704.771 554.305,704.307 553.372 C 703.378 551.504,702.107 549.729,701.85 548.77 C 701.322 546.802,701.944 544.027,701.58 543.21 C 700.791 541.442,698.056 540.454,697.78 539.65 C 697.165 537.861,698.099 534.415,698.2 533.38 C 698.438 530.952,698.722 528.499,698.984 527.33 C 699.512 524.98,700.534 522.743,700.849 521.578 C 701.478 519.246,702.023 516.689,702.178 515.498 C 702.498 513.039,702.433 510.434,702.461 509.19 C 702.517 506.692,702.31 504.06,702.462 502.942 C 702.769 500.682,703.761 498.522,704.063 497.412 C 704.668 495.19,705.424 492.701,705.556 491.577 C 705.834 489.205,705.579 486.479,705.484 485.284 C 705.285 482.78,704.785 480.263,704.561 479.026 C 704.112 476.54,703.487 474.078,703.234 472.849 C 702.727 470.392,702.273 467.921,702.017 466.696 C 701.506 464.246,700.891 461.808,700.674 460.585 C 700.24 458.138,699.956 455.65,699.838 454.423 C 699.603 451.967,699.612 449.486,699.494 448.259 C 699.26 445.803,698.674 443.145,698.662 442.098 C 698.636 439.985,698.957 437.631,699.356 436.813 C 700.201 435.082,702.313 433.665,702.985 433.249 C 704.37 432.39,706.516 431.858,707.015 432.069 C 708.286 432.608,709.326 435.306,709.616 436.059 C 710.288 437.803,710.392 440.348,710.564 441.285 C 710.947 443.374,711.429 445.881,711.61 446.928 C 711.984 449.087,712.214 451.716,712.479 452.338 C 713.034 453.643,714.458 454.606,715.051 455.014 C 716.256 455.842,719.151 456.933,719.754 457.338 C 721.215 458.322,722.366 459.758,723.009 460.373 C 724.294 461.603,725.98 463.446,726.637 463.925 C 727.968 464.896,729.785 465.835,730.386 465.753 C 731.814 465.557,733.475 463.118,734.193 462.89 C 735.92 462.34,738.676 462.63,739.555 462.834 C 741.589 463.307,743.999 464.845,744.712 465.335 C 746.159 466.33,747.258 468.396,747.826 468.522 C 749.221 468.834,750.938 467.111,751.744 466.903 C 753.371 466.484,755.587 466.169,756.311 466.338 C 757.941 466.717,759.23 468.606,760.008 468.826 C 761.644 469.29,763.823 468.606,764.693 468.712 C 766.538 468.938,769.769 469.769,770.608 470.124 C 772.8 471.052,774.832 472.576,775.694 473.368 C 777.444 474.978,779.529 478.379,779.562 478.361 C 780.708 477.741,777.652 473.069,777.667 472.301 C 777.699 470.634,779.154 468.684,779.756 468.318 C 781.126 467.485,784.417 467.804,785.303 467.66 C 787.242 467.346,789.193 466.958,790.111 466.643 C 791.959 466.007,794.722 464.515,795.618 464.112 C 797.83 463.119,800.622 462.027,801.358 461.592 C 802.847 460.711,804.689 458.85,804.68 458.752 C 804.608 457.938,801.776 458.444,801.091 458.568 C 799.7 458.82,795.884 460.307,795.188 460.467 C 792.811 461.013,790.086 461.272,789.128 461.315 C 787.202 461.401,785.249 461.098,784.295 460.953 C 782.383 460.664,779.698 460.036,778.779 459.749 C 776.632 459.078,773.866 457.944,773.01 457.428 C 771.272 456.38,769.796 454.305,769.19 453.968 C 767.931 453.267,766.252 453.415,765.521 453.26 C 764.06 452.949,761.368 452.439,760.699 452.161 C 758.999 451.455,757.571 450.113,756.774 449.627 C 755.178 448.656,752.69 447.334,751.916 446.816 C 750.054 445.57,747.938 444.005,747.232 443.241 C 745.796 441.687,744.45 439.521,744.392 438.674 C 744.261 436.753,746.591 433.486,746.567 433.478 C 745.47 433.123,743.198 437.665,742.644 438.107 C 741.499 439.022,739.655 439.412,739.103 439.441 C 737.929 439.501,736.681 438.392,736.151 438.443 C 735 438.554,733.299 440.143,732.908 440.039 C 731.756 439.733,730.154 437.34,729.78 436.75 C 728.826 435.24,728.167 432.673,727.746 431.875 C 726.764 430.012,724.774 427.043,724.197 426.159 C 722.726 423.906,720.953 421.592,720.275 420.437 C 718.875 418.049,717.65 415.06,716.976 413.85 C 715.544 411.277,713.731 408.356,712.996 407.359 C 711.519 405.356,709.613 403.235,708.786 402.74 C 707.042 401.697,704.266 401.848,703.544 401.707 C 702.098 401.424,700.228 401.404,699.928 401.007 C 699.185 400.023,699.092 396.487,699.054 395.76 C 698.944 393.647,699.092 390.683,699.337 389.715 C 699.841 387.731,701.111 385.613,701.768 385.074 C 703.204 383.895,705.661 384.008,706.63 383.729 C 708.569 383.17,711.082 382.459,712.028 382.116 C 714.088 381.369,716.058 380.191,717.067 379.945 C 719.116 379.445,721.461 379.789,722.402 379.582 C 724.308 379.164,726.06 378.082,726.993 377.764 C 728.86 377.127,731.112 376.231,731.908 376.339 C 733.666 376.577,735.422 378.287,735.981 378.98 C 737.149 380.429,737.859 383.438,738.281 384.241 C 739.129 385.853,740.254 387.319,740.765 388.076 C 741.788 389.591,743.504 391.724,743.877 392.531 C 744.777 394.478,745.571 397.501,745.59 398.515 C 745.634 400.873,744.061 403.648,744.099 404.434 C 744.181 406.112,745.894 408.449,746.074 408.441 C 747.147 408.393,747.795 405.032,748.226 404.251 C 749.136 402.601,750.699 400.351,751.009 399.488 C 751.745 397.44,752.325 393.748,752.386 392.668 C 752.543 389.916,751.906 386.524,751.81 385.421 C 751.618 383.215,751.301 381.011,751.278 379.91 C 751.232 377.701,751.521 374.996,751.57 373.89 C 751.674 371.56,751.769 369.23,751.804 368.064 C 751.874 365.733,752.042 363.134,751.927 361.991 C 751.687 359.59,750.931 357.2,750.6 356.038 C 749.938 353.709,749.031 351.442,748.605 350.313 C 747.754 348.054,746.694 345.863,746.336 344.718 C 745.617 342.421,745.226 339.828,744.957 338.651 C 744.413 336.268,743.868 333.792,743.593 332.696 C 743.042 330.506,742.063 328.285,742.092 327.25 C 742.152 325.086,743.427 322.762,743.898 321.752 C 744.87 319.669,746.293 317.401,747.058 316.607 C 748.665 314.943,751.007 313.985,752.008 313.352 C 754.01 312.085,756.269 310.74,757.286 310.139 C 759.319 308.937,761.334 307.529,762.409 307.202 C 764.615 306.533,767.296 306.737,768.469 306.744 C 770.854 306.759,773.398 306.898,774.427 307.278 C 776.561 308.067,778.415 309.905,779.213 310.716 C 780.834 312.363,781.834 314.902,782.552 315.532 C 784.042 316.838,786.228 317.449,787.193 317.711 C 789.146 318.241,792.306 318.109,793.229 318.428 C 795.381 319.171,797.339 320.766,798.18 321.502 C 799.886 322.995,800.978 325.207,801.818 325.946 C 803.522 327.442,805.861 328.618,806.874 329.141 C 808.963 330.219,811.328 331.258,812.334 331.373 C 814.434 331.613,817.107 330.837,817.743 330.381 C 819.18 329.349,819.588 326.87,819.888 325.949 C 820.493 324.091,820.5 321.12,820.968 320.481 C 822.051 319.002,824.584 318.45,825.531 318.239 C 827.471 317.807,830.755 318.088,831.771 318.076 C 834.268 318.046,836.832 318.085,838.08 318.087 C 840.603 318.092,843.127 318.097,844.389 318.1 C 846.912 318.105,849.436 318.11,850.698 318.112 C 853.221 318.118,855.745 318.123,857.006 318.125 C 859.53 318.13,862.053 318.135,863.315 318.138 C 865.839 318.143,868.362 318.148,869.624 318.15 C 872.147 318.155,874.671 318.16,875.933 318.163 C 878.456 318.168,880.98 318.173,882.241 318.176 C 884.765 318.18,887.292 318.215,888.55 318.185 C 891.068 318.127,894.582 317.545,894.84 317.882 C 895.866 319.219,893.355 323.041,893.049 324.05 C 892.438 326.068,891.602 328.054,891.453 329.074 C 891.149 331.137,891.512 334.13,891.415 335.172 C 891.188 337.592,890.711 340.3,890.296 341.404 C 889.427 343.713,887.775 345.844,887.052 346.771 C 885.595 348.639,883.528 350.091,882.827 350.983 C 881.415 352.778,880.28 354.872,879.859 355.914 C 879.008 358.023,878.875 360.729,878.469 361.784 C 877.61 364.016,876.094 366.046,875.549 367.111 C 874.458 369.241,873.46 371.755,872.972 372.514 C 871.987 374.049,870.611 375.501,869.884 375.936 C 868.366 376.843,865.527 376.692,865.149 377.193 C 864.156 378.506,864.22 382.531,864.504 383.053 C 865.261 384.446,868.527 384.528,869.186 384.621 C 870.54 384.81,871.967 384.206,872.661 384.193 C 874.056 384.166,876.328 384.39,877.022 384.468 C 878.757 384.663,880.844 385.134,881.71 385.207 C 883.448 385.353,885.349 385.081,886.082 385.23 C 887.58 385.535,888.939 386.763,889.648 386.822 C 891.134 386.946,893.621 386.176,894.342 385.921 C 896.126 385.289,898.275 383.948,899.104 383.475 C 900.962 382.415,903.046 381.116,903.892 380.474 C 905.654 379.134,907.078 377.306,907.988 376.719 C 909.832 375.531,912.473 374.688,913.505 374.28 C 915.746 373.393,918.294 372.593,919.432 372.193 C 921.803 371.359,924.178 370.525,925.363 370.108 C 927.736 369.274,930.109 368.44,931.295 368.023 C 933.668 367.19,936.04 366.356,937.226 365.939 C 939.599 365.105,941.972 364.271,943.158 363.854 C 945.531 363.02,947.903 362.186,949.09 361.769 C 951.462 360.936,953.835 360.102,955.021 359.685 C 957.394 358.851,959.766 358.017,960.953 357.6 C 963.325 356.766,965.698 355.932,966.884 355.516 C 969.257 354.682,971.63 353.848,972.816 353.431 C 975.189 352.597,977.578 351.779,978.748 351.347 C 981.087 350.482,984.064 348.834,984.56 349.09 C 986.165 349.917,985.989 353.981,986.221 355.199 C 986.689 357.666,986.841 360.22,986.911 361.458 C 987.051 363.938,986.942 366.436,986.924 367.678 C 986.887 370.161,986.89 372.666,986.728 373.885 C 986.401 376.335,985.684 378.84,985.28 379.992 C 984.465 382.309,983.188 384.603,982.623 385.565 C 981.486 387.498,979.895 389.482,979.322 390.124 C 978.167 391.417,976.486 392.29,976.011 392.966 C 975.034 394.356,974.274 396.772,974.07 397.597 C 973.634 399.368,973.929 401.317,973.736 402.206 C 973.347 403.997,972.184 406.744,971.895 407.622 C 971.18 409.795,970.282 412.504,969.984 413.606 C 969.329 416.029,968.911 418.598,968.598 419.813 C 967.971 422.253,967.312 424.756,966.832 425.863 C 965.863 428.093,964.146 430.138,963.689 431.124 C 962.768 433.11,961.985 435.35,961.966 436.352 C 961.925 438.452,963.448 440.593,963.483 441.627 C 963.555 443.757,962.694 446.148,962.333 447.164 C 961.581 449.278,960.111 452.43,959.53 452.732 C 957.987 453.536,955.256 451.296,954.285 451.358 C 952.235 451.489,950.304 453.169,949.277 453.388 C 947.194 453.833,944.586 453.623,943.506 453.658 C 941.196 453.733,938.095 453.532,937.413 453.773 C 935.929 454.295,934.829 456.132,934.478 456.839 C 933.749 458.306,933.585 461.404,933.252 462.149 C 932.421 464.004,930.562 465.452,930.22 466.353 C 929.511 468.221,929.66 470.483,929.704 471.496 C 929.795 473.542,930.782 476.504,930.695 477.076 C 930.504 478.343,929.004 479.449,928.452 479.781 C 927.299 480.476,924.521 480.752,923.987 481.116 C 922.508 482.123,921.234 484.56,920.549 485.164 C 918.986 486.544,917.043 487.508,916.139 488.046 C 914.329 489.122,911.774 490.4,910.861 490.925 C 908.849 492.083,906.627 493.166,905.9 493.937 C 904.389 495.539,903.924 498.184,903.251 498.995 C 901.873 500.656,899.816 501.794,898.892 502.383 C 897.037 503.564,894.215 504.634,893.371 505.288 C 891.589 506.666,890.184 508.639,889.586 509.584 C 888.376 511.496,887.591 514.033,887.165 515.095 C 886.271 517.329,885.321 519.74,885.056 520.897 C 884.508 523.286,884.879 526.232,884.392 527.191 C 883.333 529.273,880.759 530.765,879.738 531.355 C 877.65 532.561,875.009 532.926,873.881 533.26 C 871.623 533.928,869.085 534.259,868.19 534.772 C 866.332 535.838,865.111 537.976,864.314 538.747 C 862.719 540.292,860.861 542.054,859.984 542.719 C 858.118 544.133,855.6 545.42,854.633 546.084 C 852.549 547.513,850.489 549.212,849.457 549.94 C 847.349 551.425,845.199 552.864,844.09 553.514 C 841.869 554.816,839.513 555.906,838.347 556.453 C 836.013 557.548,833.594 558.494,832.406 558.995 C 830.024 560,827.555 561.052,826.437 561.478 C 824.201 562.333,821.361 563.472,820.777 563.435 C 819.421 563.349,818.1 561.549,817.823 560.934 C 817.227 559.613,817.195 555.892,817.037 555.138 C 816.562 552.875,815.991 550.413,815.44 549.565 C 814.285 547.785,812.064 546.533,811.138 546.053 C 809.245 545.071,806.936 544.796,805.885 544.608 C 803.774 544.229,801.349 543.849,800.52 544.148 C 798.685 544.807,797.434 547.114,796.718 547.904 C 795.284 549.486,793.722 551.768,792.96 552.492 C 791.337 554.03,789.311 555.482,788.393 555.797 C 786.466 556.458,783.916 556.225,783.061 555.89 C 781.213 555.165,779.48 552.547,778.963 552.097 "></path>
<path style="fill:#DEDEDE;fill-opacity:1;stroke:none" d="M 744.099,404.434 C 745.476 402.849,745.61 399.609,745.59 398.515 C 745.546 396.156,744.321 393.491,743.877 392.531 C 742.977 390.585,741.276 388.833,740.765 388.076 C 739.743 386.562,738.704 385.045,738.281 384.241 C 737.433 382.629,736.507 379.632,735.981 378.98 C 734.812 377.531,732.704 376.446,731.908 376.339 C 730.15 376.101,727.909 377.451,726.993 377.764 C 725.125 378.401,723.344 379.376,722.402 379.582 C 720.496 380.001,717.999 379.717,717.067 379.945 C 715.019 380.445,713.03 381.753,712.028 382.116 C 709.968 382.863,707.599 383.449,706.63 383.729 C 704.691 384.288,702.424 384.535,701.768 385.074 C 700.331 386.253,699.574 388.782,699.337 389.715 C 698.834 391.698,699 394.725,699.054 395.76 C 699.165 397.873,699.629 400.611,699.928 401.007 C 700.671 401.991,702.821 401.566,703.544 401.707 C 704.989 401.99,708.216 402.399,708.786 402.74 C 710.53 403.783,712.296 407.223,712.996 407.359 C 715.041 407.756,718.271 404.743,719.18 404.757 C 721.216 404.788,723.208 407.014,724.089 407.529 C 725.851 408.559,727.586 410.049,728.452 410.177 C 730.328 410.452,732.795 409.287,733.743 408.947 C 735.776 408.221,738.41 406.142,738.619 406.541 C 739.332 407.905,746.396 432.528,746.567 433.478 C 746.943 435.571,744.334 437.826,744.392 438.674 C 744.523 440.594,746.526 442.477,747.232 443.241 C 748.669 444.795,751.026 446.22,751.916 446.816 C 753.778 448.062,755.976 449.142,756.774 449.627 C 758.37 450.598,759.862 451.813,760.699 452.161 C 762.399 452.867,764.791 453.104,765.521 453.26 C 766.983 453.571,768.584 453.631,769.19 453.968 C 770.449 454.668,772.39 457.054,773.01 457.428 C 774.749 458.476,778.451 459.945,778.779 459.749 C 780.245 458.878,779.302 454.758,779.541 453.545 C 780.022 451.114,780.913 448.741,781.189 447.555 C 781.743 445.182,782.218 442.662,782.334 441.567 C 782.569 439.368,782.479 437.031,782.419 436.019 C 782.298 433.991,781.441 431.63,781.703 430.973 C 782.32 429.426,784.74 428.599,785.565 428.13 C 787.223 427.189,790.256 426.297,790.926 425.736 C 792.382 424.516,793.372 422.333,793.496 421.48 C 793.763 419.642,792.412 416.893,792.351 415.92 C 792.213 413.721,792.616 411.464,792.798 410.374 C 793.165 408.187,794.401 405.456,794.265 404.504 C 793.945 402.269,791.599 400.029,791.16 398.924 C 790.271 396.684,789.963 394.178,789.706 393.021 C 789.194 390.708,788.838 388.337,788.564 387.208 C 788.015 384.947,787.427 382.522,786.937 381.617 C 785.93 379.761,784.027 377.821,783.341 377.576 C 781.733 377.001,779.409 378.261,778.562 378.626 C 776.835 379.37,775.466 380.965,774.616 381.337 C 772.888 382.094,770.148 382.457,769.226 382.715 C 767.084 383.315,764.185 384.165,763.146 384.549 C 760.869 385.39,758.648 386.93,757.588 387.012 C 755.333 387.185,752.077 385.13,751.81 385.421 C 750.731 386.594,752.453 391.494,752.386 392.668 C 752.23 395.42,751.372 398.478,751.009 399.488 C 750.273 401.537,748.681 403.426,748.226 404.251 C 747.317 405.9,746.614 407.685,746.074 408.441 C 744.986 409.963,742.009 413.109,741.389 413.819 C 739.802 415.635,737.729 417.372,737.415 418.352 C 736.732 420.481,737.342 424.105,737.839 424.886 C 739.076 426.832,742.741 427.208,743.561 428.015 C 745.269 429.696,746.57 433.492,746.567 433.478 C 746.284 432.248,738.673 407.173,738.619 406.541 C 738.466 404.739,743.493 405.132,744.099 404.434 "></path>
</svg>